<svg preserveAspectRatio="none" overflow="visible" style="display: block;" width="19" height="19" viewBox="0 0 19 19" fill="none" xmlns="http://www.w3.org/2000/svg">
<g id="bitcoin-icons:caret-down-filled">
<path id="Vector" fill-rule="evenodd" clip-rule="evenodd" d="M3.53823 7.4409C3.64956 7.32971 3.80047 7.26725 3.95781 7.26725C4.11516 7.26725 4.26607 7.32971 4.37739 7.4409L9.41556 12.4791C9.43395 12.4975 9.45579 12.5121 9.47983 12.5221C9.50388 12.5321 9.52965 12.5372 9.55569 12.5372C9.58172 12.5372 9.6075 12.5321 9.63154 12.5221C9.65559 12.5121 9.67743 12.4975 9.69581 12.4791L14.734 7.4409C14.8465 7.33602 14.9954 7.27892 15.1492 7.28163C15.303 7.28435 15.4498 7.34666 15.5586 7.45545C15.6674 7.56423 15.7297 7.71099 15.7324 7.86482C15.7351 8.01864 15.678 8.16751 15.5731 8.28006L10.535 13.3182C10.4063 13.4469 10.2536 13.549 10.0855 13.6186C9.9174 13.6882 9.73724 13.7241 9.55529 13.7241C9.37334 13.7241 9.19318 13.6882 9.02508 13.6186C8.85699 13.549 8.70425 13.4469 8.5756 13.3182L3.53823 8.28006C3.42704 8.16873 3.36458 8.01782 3.36458 7.86048C3.36458 7.70314 3.42704 7.55222 3.53823 7.4409Z" fill="white"/>
</g>
</svg>
